<svg width="1200" height="630" viewBox="0 0 1200 630" fill="none" xmlns="http://www.w3.org/2000/svg" role="img" aria-labelledby="title desc">
  <title id="title">Grok Voice social card</title>
  <desc id="desc">Dark social preview card with the Grok Voice wordmark and waveform panel.</desc>
  <defs>
    <linearGradient id="bg" x1="140" y1="70" x2="960" y2="620" gradientUnits="userSpaceOnUse">
      <stop stop-color="#11151D"/>
      <stop offset="1" stop-color="#05070B"/>
    </linearGradient>
    <radialGradient id="glow" cx="0" cy="0" r="1" gradientUnits="userSpaceOnUse" gradientTransform="translate(886 124) rotate(117.746) scale(332.918 497.186)">
      <stop stop-color="#B4C3FF" stop-opacity="0.22"/>
      <stop offset="1" stop-color="#B4C3FF" stop-opacity="0"/>
    </radialGradient>
    <linearGradient id="line" x1="756" y1="244" x2="936" y2="402" gradientUnits="userSpaceOnUse">
      <stop stop-color="#F5F7FB"/>
      <stop offset="1" stop-color="#7994FF"/>
    </linearGradient>
  </defs>
  <rect width="1200" height="630" rx="42" fill="url(#bg)"/>
  <rect x="32" y="32" width="1136" height="566" rx="34" stroke="rgba(255,255,255,0.08)"/>
  <circle cx="960" cy="136" r="250" fill="url(#glow)"/>
  <text x="92" y="110" fill="#8CA6FF" font-size="18" font-family="'SF Mono', 'Menlo', monospace" letter-spacing="7">VOICE LAYER FOR GROK</text>
  <text x="92" y="260" fill="#F5F7FB" font-size="126" font-family="'Avenir Next Condensed', 'Avenir Next', sans-serif" font-weight="700" letter-spacing="-4">GROK</text>
  <text x="92" y="368" fill="#B8C4D8" font-size="112" font-family="'Avenir Next Condensed', 'Avenir Next', sans-serif" font-weight="600" letter-spacing="10">VOICE</text>
  <text x="92" y="444" fill="#A5B1C0" font-size="34" font-family="'Avenir Next', 'Helvetica Neue', sans-serif">
    Real-time agents, speech-to-text, and text-to-speech
  </text>
  <rect x="718" y="164" width="370" height="284" rx="30" fill="rgba(255,255,255,0.04)" stroke="rgba(255,255,255,0.12)"/>
  <rect x="742" y="188" width="124" height="32" rx="16" fill="rgba(255,255,255,0.06)" stroke="rgba(255,255,255,0.12)"/>
  <text x="760" y="209" fill="#8CA6FF" font-size="14" font-family="'SF Mono', 'Menlo', monospace" letter-spacing="3">LIVE SESSION</text>
  <g>
    <rect x="782" y="250" width="18" height="86" rx="9" fill="url(#line)"/>
    <rect x="820" y="224" width="18" height="138" rx="9" fill="url(#line)"/>
    <rect x="858" y="198" width="18" height="190" rx="9" fill="url(#line)"/>
    <rect x="896" y="172" width="18" height="242" rx="9" fill="url(#line)"/>
    <rect x="934" y="198" width="18" height="190" rx="9" fill="url(#line)"/>
    <rect x="972" y="224" width="18" height="138" rx="9" fill="url(#line)"/>
    <rect x="1010" y="250" width="18" height="86" rx="9" fill="url(#line)"/>
  </g>
  <text x="92" y="534" fill="#8B97A7" font-size="22" font-family="'Avenir Next', 'Helvetica Neue', sans-serif">
    grokvoice.homes
  </text>
</svg>
